<svg xmlns="http://www.w3.org/2000/svg" viewBox="0 0 1200 760" role="img" aria-labelledby="title desc">
  <title id="title">St. Mary's University campus guide map</title>
  <desc id="desc">Campus route map generated from the St. Mary's University tour GeoJSON files. Point positions are controlled by guide.json.</desc>
  <defs>
    <linearGradient id="land" x1="0" x2="1" y1="0" y2="1">
      <stop offset="0" stop-color="#eef8f4"/>
      <stop offset="0.58" stop-color="#d9f2e8"/>
      <stop offset="1" stop-color="#f8fbff"/>
    </linearGradient>
    <filter id="softShadow" x="-20%" y="-20%" width="140%" height="140%">
      <feDropShadow dx="0" dy="14" stdDeviation="14" flood-color="#0d315c" flood-opacity="0.15"/>
    </filter>
  </defs>
  <rect width="1200" height="760" fill="url(#land)"/>
  <g opacity="0.45">
    <path d="M52 120 C180 54 298 96 410 58 C560 8 704 54 820 116 C945 183 1055 158 1148 96" fill="none" stroke="#ffffff" stroke-width="46" stroke-linecap="round"/>
    <path d="M58 688 C180 622 292 654 422 610 C598 550 764 622 918 584 C1040 554 1090 600 1140 660" fill="none" stroke="#ffffff" stroke-width="54" stroke-linecap="round"/>
  </g>
  <g filter="url(#softShadow)">
    <path d="M 1016.24 174.33 L 996.67 188.86 L 987.17 199.75 L 975.56 210.64 L 968.67 217.69 L 953.62 230.5 L 942.65 238.42 L 940.21 248.16 L 941.84 258.31 L 944.56 266.43 L 951.66 277 L 963.4 289.18 L 975.11 301.37 L 989.57 314.75 L 999.95 324.53 L 1009.48 334.68" fill="none" stroke="#ffffff" stroke-width="20" stroke-linecap="round" stroke-linejoin="round" opacity="0.78"/>
    <path d="M 1009.48 334.68 L 1021.26 346.93 L 1030.86 354.58 L 1037.52 361.46 L 1042.08 368.24 L 1046.63 377.73 L 1051.19 391.3 L 1056.65 413 L 1063.65 432.65 L 1069.95 460.28 L 1076.62 475.58 L 1085.45 488.72 L 1094.28 501.06 L 1102.74 511.53 L 1115.25 530.15 L 1118.86 534.18 L 1117.55 550.42 L 1132.01 554.48 L 1140.73 554.89 L 1152 555.5" fill="none" stroke="#ffffff" stroke-width="20" stroke-linecap="round" stroke-linejoin="round" opacity="0.78"/>
    <path d="M 905.11 269.51 L 887.37 280.01 L 867.19 297.05 L 854.09 304.38 L 830.09 304.38 L 801.17 305.17 L 776.62 305.17 L 733.55 305.17 L 704.62 302.76 L 689.35 301.94 L 675.01 306.81 L 675.46 278.23 L 676.84 261.21 L 677.29 220.37 L 679.58 173.41 L 679.58 148.91" fill="none" stroke="#ffffff" stroke-width="20" stroke-linecap="round" stroke-linejoin="round" opacity="0.78"/>
    <path d="M 679.58 148.91 L 679.58 134.61 L 679.58 121 L 682.28 109.17 L 679.55 84.76 L 682.27 96.03 L 679.28 89.53 L 674.91 83.85 L 668.91 82.64 L 663.17 82.64 L 653.63 82.64 L 647.08 82.23 L 641.63 83.44 L 638.09 87.08 L 636.71 94.83 L 636.18 107.01 L 636.18 124.87 L 635.63 147.21 L 635.08 161.42 L 634.82 183.37 L 634.82 208.15 L 634.82 233.31 L 634.82 252 L 633.72 271.1 L 633.17 280.84" fill="none" stroke="#ffffff" stroke-width="20" stroke-linecap="round" stroke-linejoin="round" opacity="0.78"/>
    <path d="M 674.55 317.7 L 670.89 370.79 L 671 397.7 L 669.38 439.18 L 669.38 472.61 L 664.75 484.61 L 652.82 489.22" fill="none" stroke="#ffffff" stroke-width="20" stroke-linecap="round" stroke-linejoin="round" opacity="0.78"/>
    <path d="M 652.82 489.22 L 635.08 489.6 L 610.27 487.19 L 584.62 485.16 L 569.61 485.16 L 547.83 484.97 L 532.95 484.97 L 522.69 484.61" fill="none" stroke="#ffffff" stroke-width="20" stroke-linecap="round" stroke-linejoin="round" opacity="0.78"/>
    <path d="M 522.69 484.61 L 496.58 483.88 L 480.96 470.79 L 455.84 447.43 L 424.19 423.07 L 413.29 414.12 L 384.76 385.08 L 370.45 362.53 L 357.09 346.29 L 350.54 337.15 L 345.07 330.05 L 332.19 310.9" fill="none" stroke="#ffffff" stroke-width="20" stroke-linecap="round" stroke-linejoin="round" opacity="0.78"/>
    <path d="M 319.4 274.82 L 318.94 257.13 L 319.4 242.83 L 317.11 223.09 L 317.11 210.16 L 318.02 195.19" fill="none" stroke="#ffffff" stroke-width="20" stroke-linecap="round" stroke-linejoin="round" opacity="0.78"/>
    <path d="M 496.58 483.88 L 493.75 512.76 L 489.45 546.43 L 488.14 557.87 L 484.41 586.31 L 481.11 610.83 L 478.14 624.01 L 473.94 628.94 L 467.8 629.93 L 461.11 629.32 L 452.12 625.68" fill="none" stroke="#ffffff" stroke-width="20" stroke-linecap="round" stroke-linejoin="round" opacity="0.78"/>
    <path d="M 452.12 625.68 L 436.29 615.93 L 421.28 604.96 L 405.19 594.81 L 389.11 581.38 L 372.18 567.17 L 350.09 549.31 L 331.09 534.39 L 309.63 518.03 L 297.59 508.67 L 284.51 497.76 L 270.9 487.63 L 252.71 477 L 225.38 468.15 L 195.55 459.58 L 173.7 456.99" fill="none" stroke="#ffffff" stroke-width="20" stroke-linecap="round" stroke-linejoin="round" opacity="0.78"/>
    <path d="M 949.36 275.6 L 940.92 274.4 L 931.36 273.99 L 922.9 273.57 L 914.73 271.96 L 905.11 269.51" fill="none" stroke="#ffffff" stroke-width="20" stroke-linecap="round" stroke-linejoin="round" opacity="0.78"/>
    <path d="M 674.55 306.13 L 674.55 306.81 L 674.55 317.7" fill="none" stroke="#ffffff" stroke-width="20" stroke-linecap="round" stroke-linejoin="round" opacity="0.78"/>
    <path d="M 332.19 310.9 L 329.82 308.19 L 328.17 302.92 L 325.99 293.56 L 324.63 287.47 L 319.4 274.82" fill="none" stroke="#ffffff" stroke-width="20" stroke-linecap="round" stroke-linejoin="round" opacity="0.78"/>
    <path d="M 968.67 217.69 L 960.07 217.69" fill="none" stroke="#ffffff" stroke-width="20" stroke-linecap="round" stroke-linejoin="round" opacity="0.78"/>
    <path d="M 1016.24 174.33 L 996.67 188.86 L 987.17 199.75 L 975.56 210.64 L 968.67 217.69 L 953.62 230.5 L 942.65 238.42 L 940.21 248.16 L 941.84 258.31 L 944.56 266.43 L 951.66 277 L 963.4 289.18 L 975.11 301.37 L 989.57 314.75 L 999.95 324.53 L 1009.48 334.68" fill="none" stroke="#ffaf3a" stroke-width="9" stroke-linecap="round" stroke-linejoin="round" opacity="0.9"/>
    <path d="M 1009.48 334.68 L 1021.26 346.93 L 1030.86 354.58 L 1037.52 361.46 L 1042.08 368.24 L 1046.63 377.73 L 1051.19 391.3 L 1056.65 413 L 1063.65 432.65 L 1069.95 460.28 L 1076.62 475.58 L 1085.45 488.72 L 1094.28 501.06 L 1102.74 511.53 L 1115.25 530.15 L 1118.86 534.18 L 1117.55 550.42 L 1132.01 554.48 L 1140.73 554.89 L 1152 555.5" fill="none" stroke="#ffaf3a" stroke-width="9" stroke-linecap="round" stroke-linejoin="round" opacity="0.9"/>
    <path d="M 905.11 269.51 L 887.37 280.01 L 867.19 297.05 L 854.09 304.38 L 830.09 304.38 L 801.17 305.17 L 776.62 305.17 L 733.55 305.17 L 704.62 302.76 L 689.35 301.94 L 675.01 306.81 L 675.46 278.23 L 676.84 261.21 L 677.29 220.37 L 679.58 173.41 L 679.58 148.91" fill="none" stroke="#ffaf3a" stroke-width="9" stroke-linecap="round" stroke-linejoin="round" opacity="0.9"/>
    <path d="M 679.58 148.91 L 679.58 134.61 L 679.58 121 L 682.28 109.17 L 679.55 84.76 L 682.27 96.03 L 679.28 89.53 L 674.91 83.85 L 668.91 82.64 L 663.17 82.64 L 653.63 82.64 L 647.08 82.23 L 641.63 83.44 L 638.09 87.08 L 636.71 94.83 L 636.18 107.01 L 636.18 124.87 L 635.63 147.21 L 635.08 161.42 L 634.82 183.37 L 634.82 208.15 L 634.82 233.31 L 634.82 252 L 633.72 271.1 L 633.17 280.84" fill="none" stroke="#ffaf3a" stroke-width="9" stroke-linecap="round" stroke-linejoin="round" opacity="0.9"/>
    <path d="M 674.55 317.7 L 670.89 370.79 L 671 397.7 L 669.38 439.18 L 669.38 472.61 L 664.75 484.61 L 652.82 489.22" fill="none" stroke="#ffaf3a" stroke-width="9" stroke-linecap="round" stroke-linejoin="round" opacity="0.9"/>
    <path d="M 652.82 489.22 L 635.08 489.6 L 610.27 487.19 L 584.62 485.16 L 569.61 485.16 L 547.83 484.97 L 532.95 484.97 L 522.69 484.61" fill="none" stroke="#ffaf3a" stroke-width="9" stroke-linecap="round" stroke-linejoin="round" opacity="0.9"/>
    <path d="M 522.69 484.61 L 496.58 483.88 L 480.96 470.79 L 455.84 447.43 L 424.19 423.07 L 413.29 414.12 L 384.76 385.08 L 370.45 362.53 L 357.09 346.29 L 350.54 337.15 L 345.07 330.05 L 332.19 310.9" fill="none" stroke="#ffaf3a" stroke-width="9" stroke-linecap="round" stroke-linejoin="round" opacity="0.9"/>
    <path d="M 319.4 274.82 L 318.94 257.13 L 319.4 242.83 L 317.11 223.09 L 317.11 210.16 L 318.02 195.19" fill="none" stroke="#ffaf3a" stroke-width="9" stroke-linecap="round" stroke-linejoin="round" opacity="0.9"/>
    <path d="M 496.58 483.88 L 493.75 512.76 L 489.45 546.43 L 488.14 557.87 L 484.41 586.31 L 481.11 610.83 L 478.14 624.01 L 473.94 628.94 L 467.8 629.93 L 461.11 629.32 L 452.12 625.68" fill="none" stroke="#ffaf3a" stroke-width="9" stroke-linecap="round" stroke-linejoin="round" opacity="0.9"/>
    <path d="M 452.12 625.68 L 436.29 615.93 L 421.28 604.96 L 405.19 594.81 L 389.11 581.38 L 372.18 567.17 L 350.09 549.31 L 331.09 534.39 L 309.63 518.03 L 297.59 508.67 L 284.51 497.76 L 270.9 487.63 L 252.71 477 L 225.38 468.15 L 195.55 459.58 L 173.7 456.99" fill="none" stroke="#ffaf3a" stroke-width="9" stroke-linecap="round" stroke-linejoin="round" opacity="0.9"/>
    <path d="M 949.36 275.6 L 940.92 274.4 L 931.36 273.99 L 922.9 273.57 L 914.73 271.96 L 905.11 269.51" fill="none" stroke="#ffaf3a" stroke-width="9" stroke-linecap="round" stroke-linejoin="round" opacity="0.9"/>
    <path d="M 674.55 306.13 L 674.55 306.81 L 674.55 317.7" fill="none" stroke="#ffaf3a" stroke-width="9" stroke-linecap="round" stroke-linejoin="round" opacity="0.9"/>
    <path d="M 332.19 310.9 L 329.82 308.19 L 328.17 302.92 L 325.99 293.56 L 324.63 287.47 L 319.4 274.82" fill="none" stroke="#ffaf3a" stroke-width="9" stroke-linecap="round" stroke-linejoin="round" opacity="0.9"/>
    <path d="M 968.67 217.69 L 960.07 217.69" fill="none" stroke="#ffaf3a" stroke-width="9" stroke-linecap="round" stroke-linejoin="round" opacity="0.9"/>
  </g>
  <rect x="34" y="30" width="358" height="78" rx="18" fill="#0d315c"/>
  <text x="62" y="80" font-family="Inter, Arial, sans-serif" font-size="28" font-weight="800" fill="#ffffff">St. Mary's University Campus Route</text>
  <rect x="34" y="122" width="245" height="38" rx="10" fill="#ffffff" opacity="0.92"/>
  <text x="54" y="147" font-family="Inter, Arial, sans-serif" font-size="16" font-weight="700" fill="#0d315c">16 visitor points</text>
</svg>
